<svg id="visual" viewBox="0 0 1920 1024" width="1920" height="1024" xmlns="http://www.w3.org/2000/svg" xmlns:xlink="http://www.w3.org/1999/xlink" version="1.1"><rect x="0" y="0" width="1920" height="1024" fill="#A084E8"></rect><g transform="translate(979.9543327272006 529.4072518642942)"><path d="M248.5 -392.1C314.3 -344.4 354.6 -262.4 386.7 -180.1C418.9 -97.8 443.1 -15.3 425.6 56.6C408.2 128.6 349.2 190 292.7 251.6C236.2 313.2 182.2 374.9 114.9 397.4C47.6 419.9 -33 403.3 -118.8 386.4C-204.7 369.5 -295.8 352.4 -360.4 300C-424.9 247.5 -462.9 159.8 -470.1 71.1C-477.3 -17.5 -453.8 -107 -405.5 -173.7C-357.1 -240.4 -284 -284.2 -212.3 -329.1C-140.6 -374.1 -70.3 -420 10.5 -436.4C91.4 -452.8 182.7 -439.7 248.5 -392.1" fill="#6F61C0"></path></g></svg>